<svg width="34" height="34" viewBox="0 0 34 34" fill="none" xmlns="http://www.w3.org/2000/svg">
<path d="M25.5013 2.83301H21.2513C19.3727 2.83301 17.571 3.57929 16.2426 4.90767C14.9142 6.23605 14.168 8.03772 14.168 9.91634V14.1663H9.91797V19.833H14.168V31.1663H19.8346V19.833H24.0846L25.5013 14.1663H19.8346V9.91634C19.8346 9.54062 19.9839 9.18028 20.2496 8.91461C20.5152 8.64893 20.8756 8.49967 21.2513 8.49967H25.5013V2.83301Z" stroke="white" stroke-width="2" stroke-linecap="round" stroke-linejoin="round"/>
<path d="M25.5013 2.83301H21.2513C19.3727 2.83301 17.571 3.57929 16.2426 4.90767C14.9142 6.23605 14.168 8.03772 14.168 9.91634V14.1663H9.91797V19.833H14.168V31.1663H19.8346V19.833H24.0846L25.5013 14.1663H19.8346V9.91634C19.8346 9.54062 19.9839 9.18028 20.2496 8.91461C20.5152 8.64893 20.8756 8.49967 21.2513 8.49967H25.5013V2.83301Z" stroke="white" stroke-width="2" stroke-linecap="round" stroke-linejoin="round"/>
</svg>
