<svg width="33" height="33" viewBox="0 0 33 33" fill="none" xmlns="http://www.w3.org/2000/svg">
<path d="M23.375 2.75H9.625C5.82804 2.75 2.75 5.82804 2.75 9.625V23.375C2.75 27.172 5.82804 30.25 9.625 30.25H23.375C27.172 30.25 30.25 27.172 30.25 23.375V9.625C30.25 5.82804 27.172 2.75 23.375 2.75Z" stroke="white" stroke-width="2" stroke-linecap="round" stroke-linejoin="round"/>
<path d="M21.9991 15.6337C22.1688 16.778 21.9733 17.9467 21.4405 18.9736C20.9077 20.0004 20.0647 20.8331 19.0313 21.3532C17.998 21.8733 16.827 22.0544 15.6848 21.8706C14.5427 21.6868 13.4875 21.1475 12.6695 20.3295C11.8515 19.5115 11.3122 18.4564 11.1285 17.3142C10.9447 16.1721 11.1257 15.001 11.6458 13.9677C12.1659 12.9344 12.9986 12.0913 14.0255 11.5585C15.0523 11.0257 16.221 10.8302 17.3654 10.9999C18.5326 11.173 19.6133 11.7169 20.4477 12.5513C21.2821 13.3858 21.826 14.4664 21.9991 15.6337Z" stroke="white" stroke-width="2" stroke-linecap="round" stroke-linejoin="round"/>
<path d="M24.0625 8.9375H24.0763" stroke="white" stroke-width="2" stroke-linecap="round" stroke-linejoin="round"/>
</svg>
