<svg width="33" height="27" viewBox="0 0 33 27" fill="none" xmlns="http://www.w3.org/2000/svg">
<path d="M31.25 1.01383C29.9333 1.94261 28.4754 2.65298 26.9325 3.11758C26.1044 2.1654 25.0038 1.49053 23.7797 1.18423C22.5555 0.877922 21.2668 0.954971 20.0879 1.40495C18.9089 1.85493 17.8966 2.65613 17.1879 3.70019C16.4791 4.74425 16.1081 5.98079 16.125 7.24258V8.61758C13.7086 8.68023 11.3143 8.14432 9.15514 7.05757C6.99602 5.97081 5.13919 4.36695 3.75 2.38883C3.75 2.38883 -1.75 14.7638 10.625 20.2638C7.79323 22.186 4.41984 23.1499 1 23.0138C13.375 29.8888 28.5 23.0138 28.5 7.20133C28.4987 6.81833 28.4619 6.43627 28.39 6.06008C29.7933 4.67613 30.7836 2.92881 31.25 1.01383V1.01383Z" stroke="white" stroke-width="2" stroke-linecap="round" stroke-linejoin="round"/>
</svg>
